<svg xmlns="http://www.w3.org/2000/svg" width="17" height="16" viewBox="0 0 17 16" fill="none">
  <path d="M11.4334 10.7334L8.35339 7.64671L8.28006 7.57337L2.70006 2.00004L1.85339 2.84671L3.97339 4.96671C3.89339 5.30004 3.85339 5.64004 3.85339 6.00004C3.85339 9.50004 8.52006 14.6667 8.52006 14.6667C8.52006 14.6667 9.63339 13.4334 10.7667 11.7667L13.0067 14L13.8534 13.1467M8.52006 4.33337C8.96209 4.33337 9.38601 4.50897 9.69857 4.82153C10.0111 5.13409 10.1867 5.55801 10.1867 6.00004C10.1867 6.48671 9.96673 6.92671 9.63339 7.23337L12.0534 9.66671C12.7067 8.41337 13.1867 7.12004 13.1867 6.00004C13.1867 4.76236 12.6951 3.57538 11.8199 2.70021C10.9447 1.82504 9.75774 1.33337 8.52006 1.33337C7.18673 1.33337 6.01339 1.88004 5.16006 2.76004L7.28673 4.88671C7.59339 4.54671 8.02673 4.33337 8.52006 4.33337Z" fill="#808080"/>
</svg>